<svg width="421" height="416" viewBox="0 0 421 416" fill="none" xmlns="http://www.w3.org/2000/svg">
<path fill-rule="evenodd" clip-rule="evenodd" d="M208.237 11.218L183.043 74.1968H321.606V11.218H208.237Z" fill="#39B295"/>
<path fill-rule="evenodd" clip-rule="evenodd" d="M94.8676 74.1968H208.237V11.218H94.8676V74.1968Z" fill="#59BBA8"/>
<path fill-rule="evenodd" clip-rule="evenodd" d="M0.39386 86.7932V338.708H88.5696L50.7803 36.4098C23.0679 36.4098 0.39386 59.0824 0.39386 86.7932Z" fill="url(#paint0_linear)"/>
<path fill-rule="evenodd" clip-rule="evenodd" d="M50.7803 36.4098V338.708L208.237 313.516V36.4098H50.7803Z" fill="#B72D33"/>
<path fill-rule="evenodd" clip-rule="evenodd" d="M12.4489 326.063V313.468H358.854V363.851H50.2393C29.4021 363.851 12.4489 346.899 12.4489 326.063Z" fill="url(#paint1_linear)"/>
<path fill-rule="evenodd" clip-rule="evenodd" d="M0.406318 338.708H0.39386C0.39386 338.519 0.394899 338.331 0.396972 338.142C0.394899 337.954 0.39386 337.765 0.39386 337.577L0.406602 337.564C1.01502 310.267 23.335 288.326 50.7803 288.326H396.102V307.517C396.102 310.83 393.416 313.517 390.102 313.517H371.992V381.96C371.992 385.274 369.306 387.96 365.992 387.96H50.7803C23.3307 387.96 1.00805 366.012 0.406318 338.708ZM25.5933 338.142C25.8942 351.795 37.0549 362.768 50.7803 362.768H346.799V313.517H50.7803C37.0549 313.517 25.8942 324.491 25.5933 338.142Z" fill="url(#paint2_linear)"/>
<g clip-path="url(#clip0)">
<rect x="93.9328" y="313.468" width="227.476" height="102" fill="url(#paint3_linear)"/>
<mask id="mask0" mask-type="alpha" maskUnits="userSpaceOnUse" x="93" y="313" width="229" height="103">
<rect x="93.9328" y="313.468" width="227.476" height="102" fill="white"/>
</mask>
<g mask="url(#mask0)">
<path opacity="0.67" d="M149.084 307.243H163.404V363.243H149.084V321.803L136.284 328.763V314.203L149.084 307.243ZM216.659 356.523C212.605 361.803 206.925 364.443 199.619 364.443C192.312 364.443 186.605 361.803 182.499 356.523C178.445 351.189 176.419 344.096 176.419 335.243C176.419 326.389 178.445 319.323 182.499 314.043C186.605 308.709 192.312 306.043 199.619 306.043C206.925 306.043 212.605 308.709 216.659 314.043C220.765 319.323 222.819 326.389 222.819 335.243C222.819 344.096 220.765 351.189 216.659 356.523ZM190.739 335.243C190.739 345.429 193.699 350.523 199.619 350.523C205.539 350.523 208.499 345.429 208.499 335.243C208.499 325.056 205.539 319.963 199.619 319.963C193.699 319.963 190.739 325.056 190.739 335.243ZM273.489 347.243C273.489 352.363 271.809 356.389 268.449 359.323C265.089 362.256 260.769 363.936 255.489 364.363V371.243H249.889V364.283C244.449 363.749 240.076 361.909 236.769 358.763C233.463 355.616 231.809 351.136 231.809 345.323H245.969C245.969 348.469 247.276 350.389 249.889 351.083V341.083C247.383 340.229 245.356 339.456 243.809 338.763C242.263 338.016 240.503 336.976 238.529 335.643C236.609 334.256 235.143 332.523 234.129 330.443C233.169 328.363 232.689 325.963 232.689 323.243C232.689 318.229 234.289 314.256 237.489 311.323C240.689 308.336 244.823 306.603 249.889 306.123V299.243H255.489V306.203C260.503 306.736 264.556 308.576 267.649 311.723C270.796 314.816 272.369 319.163 272.369 324.763H258.769C258.769 321.936 257.676 320.176 255.489 319.483V329.243C255.543 329.296 255.623 329.323 255.729 329.323C255.836 329.323 255.916 329.349 255.969 329.403C258.156 330.149 259.783 330.736 260.849 331.163C261.969 331.589 263.463 332.336 265.329 333.403C267.249 334.469 268.689 335.563 269.649 336.683C270.609 337.749 271.489 339.216 272.289 341.083C273.089 342.896 273.489 344.949 273.489 347.243ZM246.769 322.923C246.769 324.523 247.809 325.909 249.889 327.083V319.323C247.809 319.856 246.769 321.056 246.769 322.923ZM255.489 351.163C257.996 350.683 259.249 349.483 259.249 347.563C259.249 345.696 257.996 344.229 255.489 343.163V351.163Z" fill="url(#paint4_linear)"/>
</g>
</g>
<rect x="93.9328" width="227.476" height="162.958" fill="url(#paint5_linear)"/>
<path opacity="0.67" d="M145.611 26.7142H159.931V82.7142H145.611V41.2742L132.811 48.2342V33.6742L145.611 26.7142ZM213.186 75.9942C209.132 81.2742 203.452 83.9142 196.146 83.9142C188.839 83.9142 183.132 81.2742 179.026 75.9942C174.972 70.6609 172.946 63.5676 172.946 54.7142C172.946 45.8609 174.972 38.7942 179.026 33.5142C183.132 28.1809 188.839 25.5142 196.146 25.5142C203.452 25.5142 209.132 28.1809 213.186 33.5142C217.292 38.7942 219.346 45.8609 219.346 54.7142C219.346 63.5676 217.292 70.6609 213.186 75.9942ZM187.266 54.7142C187.266 64.9009 190.226 69.9942 196.146 69.9942C202.066 69.9942 205.026 64.9009 205.026 54.7142C205.026 44.5276 202.066 39.4342 196.146 39.4342C190.226 39.4342 187.266 44.5276 187.266 54.7142ZM270.016 66.7142C270.016 71.8342 268.336 75.8609 264.976 78.7942C261.616 81.7276 257.296 83.4076 252.016 83.8342V90.7142H246.416V83.7542C240.976 83.2209 236.603 81.3809 233.296 78.2342C229.99 75.0876 228.336 70.6076 228.336 64.7942H242.496C242.496 67.9409 243.803 69.8609 246.416 70.5542V60.5542C243.91 59.7009 241.883 58.9276 240.336 58.2342C238.79 57.4876 237.03 56.4476 235.056 55.1142C233.136 53.7276 231.67 51.9942 230.656 49.9142C229.696 47.8342 229.216 45.4342 229.216 42.7142C229.216 37.7009 230.816 33.7276 234.016 30.7942C237.216 27.8076 241.35 26.0742 246.416 25.5942V18.7142H252.016V25.6742C257.03 26.2076 261.083 28.0476 264.176 31.1942C267.323 34.2876 268.896 38.6342 268.896 44.2342H255.296C255.296 41.4076 254.203 39.6476 252.016 38.9542V48.7142C252.07 48.7676 252.15 48.7942 252.256 48.7942C252.363 48.7942 252.443 48.8209 252.496 48.8742C254.683 49.6209 256.31 50.2076 257.376 50.6342C258.496 51.0609 259.99 51.8076 261.856 52.8742C263.776 53.9409 265.216 55.0342 266.176 56.1542C267.136 57.2209 268.016 58.6876 268.816 60.5542C269.616 62.3676 270.016 64.4209 270.016 66.7142ZM243.296 42.3942C243.296 43.9942 244.336 45.3809 246.416 46.5542V38.7942C244.336 39.3276 243.296 40.5276 243.296 42.3942ZM252.016 70.6342C254.523 70.1542 255.776 68.9542 255.776 67.0342C255.776 65.1676 254.523 63.7009 252.016 62.6342V70.6342Z" fill="url(#paint6_linear)"/>
<path d="M49.7957 36.2129H390.102C393.416 36.2129 396.102 38.8992 396.102 42.2129V288.571H49.7957V36.2129Z" fill="url(#paint7_linear)"/>
<defs>
<linearGradient id="paint0_linear" x1="-10.0495" y1="120.975" x2="120.255" y2="229.801" gradientUnits="userSpaceOnUse">
<stop stop-color="#1ACBFD"/>
<stop offset="1" stop-color="#345AFF"/>
</linearGradient>
<linearGradient id="paint1_linear" x1="-349.788" y1="213.537" x2="-348.986" y2="362.986" gradientUnits="userSpaceOnUse">
<stop stop-color="#1ACBFD"/>
<stop offset="1" stop-color="#345AFF"/>
</linearGradient>
<linearGradient id="paint2_linear" x1="-266.607" y1="140.926" x2="-267.212" y2="379.844" gradientUnits="userSpaceOnUse">
<stop stop-color="#1ACBFD"/>
<stop offset="1" stop-color="#345AFF"/>
</linearGradient>
<linearGradient id="paint3_linear" x1="398.942" y1="355.48" x2="267.219" y2="182.503" gradientUnits="userSpaceOnUse">
<stop stop-color="#1CFFBE"/>
<stop offset="1" stop-color="#35E9F2"/>
</linearGradient>
<linearGradient id="paint4_linear" x1="-53.7904" y1="359.643" x2="153.311" y2="518.42" gradientUnits="userSpaceOnUse">
<stop stop-color="#17FAFF"/>
<stop offset="1" stop-color="#0093FF"/>
</linearGradient>
<linearGradient id="paint5_linear" x1="398.942" y1="67.1194" x2="184.768" y2="-108.923" gradientUnits="userSpaceOnUse">
<stop stop-color="#1CFFBE"/>
<stop offset="1" stop-color="#35E9F2"/>
</linearGradient>
<linearGradient id="paint6_linear" x1="-65.4509" y1="79.1147" x2="143.76" y2="246.432" gradientUnits="userSpaceOnUse">
<stop stop-color="#17FAFF"/>
<stop offset="1" stop-color="#0093FF"/>
</linearGradient>
<linearGradient id="paint7_linear" x1="-110.241" y1="104.945" x2="3.70749" y2="370.264" gradientUnits="userSpaceOnUse">
<stop stop-color="#1ACBFD"/>
<stop offset="1" stop-color="#345AFF"/>
</linearGradient>
<clipPath id="clip0">
<rect width="228" height="102" fill="white" transform="translate(93.9328 313.468)"/>
</clipPath>
</defs>
</svg>
